<?xml version="1.0" encoding="iso-8859-1"?>
<!-- Generator: Adobe Illustrator 19.0.0, SVG Export Plug-In . SVG Version: 6.00 Build 0)  -->
<svg version="1.1" id="Layer_1" xmlns="http://www.w3.org/2000/svg" xmlns:xlink="http://www.w3.org/1999/xlink" x="0px" y="0px"
	 viewBox="0 0 512 512" style="enable-background:new 0 0 512 512;" xml:space="preserve">
<g>
	<path style="fill:#F25B22;" d="M315.008,306.592c61.333-61.333,106.667,0,106.667,0
		C360.341,367.925,315.008,306.592,315.008,306.592z"/>
	<path style="fill:#F25B22;" d="M96.021,236.299c61.333-61.333,106.667,0,106.667,0C141.355,297.632,96.021,236.299,96.021,236.299z
		"/>
</g>
<polygon style="fill:#546A79;" points="501.355,418.272 501.355,503.605 10.688,503.605 10.688,418.272 26.688,418.272 
	485.355,418.272 "/>
<rect x="85.355" y="7.605" style="fill:#AFB6BB;" width="341.333" height="48"/>
<path style="fill:#E7ECED;" d="M485.355,55.605v90.667c-25.493,0-25.493-21.333-50.987-21.333
	c-25.493,0-25.493,21.333-51.093,21.333c-25.493,0-25.493-21.333-50.987-21.333c-25.387,0-25.387,21.333-50.88,21.333
	s-25.493-21.333-50.987-21.333c-25.387,0-25.387,21.333-50.88,21.333s-25.493-21.333-50.987-21.333s-25.493,21.333-50.987,21.333
	c-25.387,0-25.387-21.333-50.88-21.333V55.605h58.667h341.333C426.688,55.605,485.355,55.605,485.355,55.605z"/>
<path style="fill:#00B4D7;" d="M202.688,236.299c0,0-45.333-61.333-106.667,0C96.021,236.299,141.355,297.632,202.688,236.299z
	 M315.008,306.592c0,0,45.333,61.333,106.667,0C421.675,306.592,376.341,245.259,315.008,306.592z M485.355,146.272v272H26.688
	V124.939c25.493,0,25.493,21.333,50.88,21.333c25.493,0,25.493-21.333,50.987-21.333s25.493,21.333,50.987,21.333
	s25.493-21.333,50.88-21.333c25.493,0,25.493,21.333,50.987,21.333s25.493-21.333,50.88-21.333
	c25.493,0,25.493,21.333,50.987,21.333c25.6,0,25.6-21.333,51.093-21.333C459.861,124.939,459.861,146.272,485.355,146.272z"/>
<path style="fill:#00A9D5;" d="M180.961,253.611c-50.012,29.915-84.94-17.312-84.94-17.312
	c22.194-22.195,42.275-28.287,58.89-27.073c-13.332-26.385-23.856-54.42-31.117-83.771c-20.604,2.592-22.526,20.818-46.226,20.818
	c-25.387,0-25.387-21.333-50.88-21.333v293.333h393.617C321.247,395.066,236.402,335.196,180.961,253.611z"/>
<path d="M428.087,302.23c-0.842-1.138-20.978-27.904-53.51-30.331c-20.11-1.499-40.07,6.546-59.44,23.923l-37.481-37.481
	l-11.313,11.314l37.286,37.286l-36.924,36.369l11.228,11.399l36.662-36.112c8.345,8.43,24.927,21.79,47.467,23.472
	c1.581,0.117,3.161,0.176,4.739,0.176c20.512,0,40.845-9.941,60.508-29.604l4.871-4.871l0,0l0.001-0.001L428.087,302.23z
	 M373.252,287.846c17.326,1.242,30.615,12.003,37.267,18.66c-15.858,14.13-31.685,20.723-47.132,19.618
	c-17.33-1.243-30.622-12.009-37.268-18.659C341.979,293.338,357.808,286.749,373.252,287.846z"/>
<path d="M239.997,285.337l11.313-11.314l-37.286-37.286l36.924-36.369l-11.228-11.399l-36.662,36.112
	c-8.345-8.43-24.927-21.79-47.467-23.472c-22.117-1.647-44.07,8.252-65.247,29.428l-4.871,4.871l4.095,5.54
	c0.842,1.138,20.978,27.903,53.509,30.331c1.581,0.117,3.161,0.176,4.739,0.176c18.495,0,36.842-8.11,54.686-24.113L239.997,285.337
	z M144.401,255.833c-17.326-1.242-30.615-12.003-37.267-18.66c15.859-14.129,31.689-20.717,47.133-19.619
	c17.331,1.243,30.622,12.01,37.268,18.659C175.676,250.342,159.849,256.937,144.401,255.833z"/>
<path d="M2.667,410.667V512h506.667V410.667H2.667z M493.333,496H18.667v-69.333h474.667V496z"/>
<rect x="170.667" y="453.333" style="fill:#FFFFFF;" width="170.667" height="16"/>
<rect x="362.667" y="453.333" width="32" height="16"/>
<rect x="416" y="181.333" style="fill:#FFFFFF;" width="32" height="16"/>
<rect x="384" y="213.333" width="32" height="16"/>
<g>
	<rect x="64" y="352" style="fill:#FFFFFF;" width="32" height="16"/>
	<rect x="96" y="320" style="fill:#FFFFFF;" width="32" height="16"/>
</g>
<rect x="128" y="352" width="32" height="16"/>
<rect x="117.333" y="453.333" width="32" height="16"/>
<path d="M34.667,64h442.667v73.606c-4.831-1.447-8.205-4.265-12.359-7.742c-6.672-5.583-14.975-12.531-30.627-12.531
	c-15.634,0-23.94,6.937-30.614,12.51c-5.904,4.93-10.566,8.823-20.479,8.823c-9.841,0-14.253-3.692-20.359-8.802
	c-6.672-5.583-14.975-12.531-30.627-12.531c-15.59,0-23.869,6.942-30.521,12.519c-5.872,4.924-10.51,8.814-20.359,8.814
	c-9.841,0-14.253-3.692-20.359-8.802c-6.672-5.583-14.975-12.531-30.627-12.531c-15.59,0-23.869,6.942-30.521,12.519
	c-5.872,4.924-10.51,8.814-20.359,8.814c-9.841,0-14.253-3.692-20.359-8.802c-6.672-5.583-14.975-12.531-30.627-12.531
	s-23.956,6.948-30.628,12.531c-6.106,5.11-10.518,8.802-20.358,8.802v16c15.652,0,23.955-6.948,30.627-12.531
	c6.107-5.11,10.518-8.802,20.359-8.802s14.253,3.692,20.359,8.802c6.671,5.583,14.975,12.531,30.627,12.531
	c15.67,0,23.971-6.96,30.64-12.554c6.079-5.098,10.47-8.78,20.24-8.78c9.841,0,14.253,3.692,20.359,8.802
	c6.671,5.583,14.975,12.531,30.627,12.531c15.67,0,23.971-6.96,30.64-12.554c6.079-5.098,10.47-8.78,20.24-8.78
	c9.841,0,14.253,3.692,20.359,8.802c6.671,5.583,14.975,12.531,30.627,12.531c15.714,0,24.043-6.955,30.734-12.543
	c6.111-5.103,10.527-8.79,20.358-8.79c9.841,0,14.253,3.692,20.358,8.802c5.431,4.546,11.948,9.995,22.628,11.863v227.334h16V48
	h-58.667V0H77.332v48H18.666v333.333h16V64H34.667z M93.333,16h325.333v32H93.333V16z"/>
<g>
</g>
<g>
</g>
<g>
</g>
<g>
</g>
<g>
</g>
<g>
</g>
<g>
</g>
<g>
</g>
<g>
</g>
<g>
</g>
<g>
</g>
<g>
</g>
<g>
</g>
<g>
</g>
<g>
</g>
</svg>
